<svg height="99" id="Capa_1" style="enable-background:new 0 0 138 99;" version="1.1" viewBox="0 0 138 99" x="0px" xml:space="preserve" xmlns="http://www.w3.org/2000/svg" xmlns:xlink="http://www.w3.org/1999/xlink" y="0px" width="138" >
<style type="text/css" fill="#666666">.st0{fill:#E12214;}
</style>
<g fill="#666666"> <g fill="#666666"> <path class="st0" d="M103.1,79C102.9,66.4,90,62.7,80.6,60c-1.1-0.3-2.2-0.6-3.1-0.9v-5.2c1.9-1.2,3.6-2.8,5-4.6h5.7
			c2.8,0,5.1-2.3,5.1-5.1V38c0.3-0.8,0.5-1.7,0.5-2.6v-1.9c0-0.9-0.2-1.8-0.5-2.6v-3.2c0-14.1-11.5-25.5-25.5-25.5
			c-14.1,0-25.5,11.5-25.5,25.5v3.1c0,0,0,0,0,0.1c-0.3,0.8-0.5,1.7-0.5,2.6v1.9c0,3.6,2.9,6.6,6.6,6.6h1.5c1,5,4.1,9.2,8.3,11.8V59
			c-1,0.3-2,0.6-3.1,0.9c-9.4,2.7-22.3,6.4-22.5,19c0,0,0,0,0,0v14.1c0,1,0.8,1.8,1.8,1.8h5.4c1,0,1.8-0.8,1.8-1.8
			c0-1-0.8-1.8-1.8-1.8H36V79.1c0.1-4.4,2.1-7.7,6.4-10.4c2.8-1.8,6.2-3,9.6-4.1l4.4,8.5c0.5,1,1.7,1.3,2.6,0.7l2-1.3l1.7,6.3
			l-2.9,12.6h-3.9c-1,0-1.8,0.8-1.8,1.8c0,1,0.8,1.8,1.8,1.8h45.5c1,0,1.8-0.8,1.8-1.8L103.1,79C103.1,79,103.1,79,103.1,79
			L103.1,79z M79.6,63.4c0.1,0,0.2,0.1,0.4,0.1l-3.1,6.1l-5.9-4l5-3.3C77.1,62.7,78.3,63.1,79.6,63.4L79.6,63.4z M67.7,67.9l3.6,2.4
			l-1.8,6.6h-3.8l-1.8-6.6L67.7,67.9z M67.7,63.5l-6.1-4.1v-3.8c1.9,0.7,4,1,6.1,1c2.1,0,4.2-0.4,6.1-1v3.8L67.7,63.5z M82.5,28.1
			C82.5,28.1,82.5,28.1,82.5,28.1c-3.8-2.4-7-4.5-12-3c0,0-0.1,0-0.1,0c-1.1,0.4-2,0.8-3,1.1c-5.7,2.2-8.9,3.4-14.4,3.3v-1.5
			c0-8.1,6.6-14.8,14.8-14.8S82.5,19.9,82.5,28.1L82.5,28.1L82.5,28.1z M89.6,44.2c0,0.8-0.7,1.5-1.5,1.5h-3.6
			c0.5-1.2,0.9-2.4,1.2-3.6h1.5c0.9,0,1.7-0.2,2.4-0.5L89.6,44.2L89.6,44.2z M90.2,35.4c0,1.6-1.3,2.9-2.9,2.9h-1.1c0,0,0-7.8,0-7.8
			h1.1c1.6,0,2.9,1.3,2.9,2.9L90.2,35.4L90.2,35.4z M48.3,38.4c-1.6,0-2.9-1.3-2.9-2.9v-1.9c0-1.6,1.3-2.9,2.9-2.9h1.1
			c0,0,0,7.8,0,7.8H48.3z M49.4,27h-1.1c-0.8,0-1.7,0.2-2.4,0.5C46,15.5,55.8,5.9,67.7,5.9c12,0,21.7,9.6,21.9,21.6
			c-0.7-0.3-1.6-0.5-2.4-0.5h-1.1c-0.6-9.6-8.6-17.3-18.3-17.3C58,9.7,50,17.3,49.4,27L49.4,27z M53.1,40C53.1,40,53.1,40,53.1,40
			C53,39.4,53,38.8,53,38.3v-5.1c6.2,0.2,9.9-1.3,15.7-3.5c0.9-0.4,1.9-0.7,2.9-1.1c3.4-1,5.4,0.3,8.9,2.6c0.6,0.4,1.3,0.8,2,1.3
			v5.9c0,2.7-0.7,5.2-2,7.4H67.7c-1,0-1.8,0.8-1.8,1.8s0.8,1.8,1.8,1.8h9.8c-2.6,2.3-6,3.7-9.8,3.7C60.2,53,54,47.3,53.1,40L53.1,40
			z M58.6,69.7l-3.1-6.1c0.1,0,0.2-0.1,0.4-0.1c1.3-0.4,2.5-0.7,3.7-1.1l5,3.3L58.6,69.7z M63.5,91.4l2.5-10.8h3.7L72,91.4H63.5z
			 M99.5,91.4H75.8l-2.9-12.6l1.7-6.3l2,1.3c0.9,0.6,2.1,0.3,2.6-0.7l4.4-8.5c3.4,1.1,6.8,2.3,9.6,4.1c4.3,2.7,6.3,6,6.4,10.4
			L99.5,91.4L99.5,91.4z" fill="#E12214"></path> <path class="st0" d="M92.3,82.3h-9.1c-1,0-1.8,0.8-1.8,1.8s0.8,1.8,1.8,1.8h9.1c1,0,1.8-0.8,1.8-1.8S93.3,82.3,92.3,82.3z" fill="#E12214"></path> <path class="st0" d="M47.7,91.4c-1,0-1.8,0.8-1.8,1.8c0,1,0.8,1.8,1.8,1.8h0c1,0,1.8-0.8,1.8-1.8C49.5,92.2,48.7,91.4,47.7,91.4z" fill="#E12214"></path> </g> </g> <g fill="#666666"> </g> <g fill="#666666"> </g> <g fill="#666666"> </g> <g fill="#666666"> </g> <g fill="#666666"> </g> <g fill="#666666"> </g> <g fill="#666666"> </g> <g fill="#666666"> </g> <g fill="#666666"> </g> <g fill="#666666"> </g> <g fill="#666666"> </g> <g fill="#666666"> </g> <g fill="#666666"> </g> <g fill="#666666"> </g> <g fill="#666666"> </g> </svg>