<svg xmlns="http://www.w3.org/2000/svg" xmlns:xlink="http://www.w3.org/1999/xlink" version="1.1" id="Capa_1" x="0px" y="0px" viewBox="0 0 29 40" enable-background="new 0 0 29 40" xml:space="preserve" width="29"  height="40" >
<g>
	<path fill="#FFFFFF" d="M23.3,13.1h-0.5V11c0-0.8-0.7-1.5-1.5-1.5H7.6c-0.8,0-1.5,0.7-1.5,1.5v2.1H5.7c-1.5,0-2.7,1.2-2.7,2.7V37   c0,1.5,1.2,2.7,2.7,2.7h17.7c1.5,0,2.7-1.2,2.7-2.7V15.8C26.1,14.3,24.9,13.1,23.3,13.1z M19.7,21.6c-0.2,1.4-1.3,2.4-2.5,2.3   c-1.2-0.1-2-1.4-1.8-2.8c0.2-1.4,1.3-2.4,2.5-2.3C19.1,18.9,19.9,20.1,19.7,21.6z M12,23.9C10.8,24,9.7,23,9.5,21.6   c-0.2-1.4,0.6-2.7,1.8-2.8c1.2-0.1,2.3,0.9,2.5,2.3C13.9,22.5,13.1,23.7,12,23.9z M9.1,27.7c-1,0.6-2.4,0.1-3.2-1.1   c-0.8-1.2-0.6-2.7,0.4-3.3c1-0.6,2.4-0.1,3.2,1.1C10.3,25.6,10.1,27.1,9.1,27.7z M17.1,32.2h-5c-1.3,0-2.2-1.3-1.8-2.5   c0,0,1.4-3.7,1.4-3.7c1-2.6,4.9-2.6,5.8,0l1.4,3.7C19.4,30.9,18.4,32.2,17.1,32.2z M23.3,26.6c-0.8,1.2-2.2,1.7-3.2,1.1   c-1-0.6-1.2-2.1-0.4-3.3c0.8-1.2,2.2-1.7,3.2-1.1C23.9,23.9,24.1,25.4,23.3,26.6z"/>
	<path fill="#FFFFFF" d="M22.2,2v5.5h-6.7V3.6H9.2C9,3.6,8.9,3.7,8.9,3.9v1.9c0,0.5-0.5,1-1,1c-0.6,0-1-0.4-1-1V3.9   c0-1.3,1.1-2.3,2.4-2.3h6.3c0.2-0.8,0.9-1.3,1.7-1.3h3.2C21.4,0.3,22.2,1,22.2,2z"/>
</g>
</svg>