<svg height="99" id="Capa_1" style="enable-background:new 0 0 138 99;" version="1.1" viewBox="0 0 138 99" x="0px" xml:space="preserve" xmlns="http://www.w3.org/2000/svg" xmlns:xlink="http://www.w3.org/1999/xlink" y="0px" width="138" >
<style type="text/css" fill="#666666">.st0{fill:#E12214;}
</style>
<g fill="#666666"> <path class="st0" d="M36.2,51.1H20.3c-0.7,0-1.2-0.6-1.2-1.2c0-0.7,0.6-1.2,1.2-1.2h15.9c0.7,0,1.2,0.6,1.2,1.2
		C37.4,50.6,36.9,51.1,36.2,51.1" fill="#E12214"></path> <path class="st0" d="M30.1,42.1h-6c-0.7,0-1.2-0.6-1.2-1.2c0-0.7,0.6-1.2,1.2-1.2h6c0.7,0,1.2,0.6,1.2,1.2
		C31.3,41.5,30.8,42.1,30.1,42.1" fill="#E12214"></path> <path class="st0" d="M27.8,24.7h-7.4c-0.7,0-1.2-0.6-1.2-1.2c0-0.7,0.6-1.2,1.2-1.2h7.4c0.7,0,1.2,0.6,1.2,1.2
		C29,24.2,28.4,24.7,27.8,24.7" fill="#E12214"></path> <path class="st0" d="M37.4,33H27.1c-0.7,0-1.2-0.6-1.2-1.2c0-0.7,0.6-1.2,1.2-1.2h10.3c0.7,0,1.2,0.6,1.2,1.2
		C38.6,32.5,38,33,37.4,33" fill="#E12214"></path> <path class="st0" d="M103.8,75.6c-6,0-10.8-4.8-10.8-10.8c0-2.2,0.7-4.4,2-6.2c0.1-0.2,0.3-0.3,0.5-0.4c2.3-1.1,4.4-1.8,6.1-2.3
		c1.8-0.5,3.9-0.8,6.3-0.9c0.2,0,0.4,0,0.6,0.1c3.7,1.8,6.1,5.6,6.1,9.7C114.6,70.7,109.7,75.6,103.8,75.6 M96.8,60.2
		c-0.9,1.4-1.3,2.9-1.3,4.5c0,4.6,3.7,8.3,8.3,8.3c4.6,0,8.3-3.7,8.3-8.3c0-3.1-1.7-6-4.5-7.4c-2.1,0.1-4,0.4-5.5,0.8
		C100.7,58.6,98.9,59.3,96.8,60.2" fill="#E12214"></path> <path class="st0" d="M43.5,75.6c-5.9,0-10.7-4.8-10.8-10.7c0-0.3,0.1-0.6,0.4-0.9c0.2-0.2,0.5-0.4,0.9-0.4H53
		c0.3,0,0.6,0.1,0.9,0.4c0.2,0.2,0.4,0.6,0.4,0.9C54.2,70.8,49.4,75.6,43.5,75.6 M35.2,66.1c0.6,4,4.1,7,8.2,7c4.1,0,7.6-3,8.2-7
		H35.2z" fill="#E12214"></path> <path class="st0" d="M59,62.2c-0.2,0-0.5-0.1-0.7-0.2c-0.6-0.4-0.7-1.1-0.3-1.7c2.3-3.4,2.1-7.8-0.6-10.4
		c-2.2-2.2-7.2-3.5-13.4-3.5c-3.5,0-6.6,0.2-9.5,0.3c-0.7,0-1.3-0.5-1.3-1.2c0-0.7,0.5-1.3,1.2-1.3c2.9-0.2,6.1-0.3,9.7-0.3
		c3.3,0,11.3,0.4,15.1,4.2c3.5,3.5,3.9,9.2,0.9,13.6C59.8,62,59.4,62.2,59,62.2" fill="#E12214"></path> <path class="st0" d="M53.2,42.2H35.2c-1.2,0-2.1-1-2.1-2.1v-3.8c0-0.7,0.6-1.2,1.2-1.2c0.7,0,1.2,0.6,1.2,1.2v3.4h17.2v-15H35.6
		v6.5c0,0.7-0.6,1.2-1.2,1.2c-0.7,0-1.2-0.6-1.2-1.2v-6.9c0-1.2,0.9-2.1,2.1-2.1h17.9c1.2,0,2.1,0.9,2.1,2.1v15.7
		C55.3,41.3,54.3,42.2,53.2,42.2" fill="#E12214"></path> <path class="st0" d="M80.9,66.1H29.8c-1,0-1.7-0.7-1.8-1.7c-0.2-2.5,0.3-7.5,1.3-11.3l1-3.5c0.2-0.7,0.9-1,1.5-0.8
		c0.7,0.2,1,0.9,0.8,1.5l-1,3.5c-0.9,3.1-1.4,7.5-1.3,9.9h50.5c3.3,0,7.2-1.6,8.2-2.2c1.3-0.8,3.7-2.1,6.3-3.3
		c2.3-1.1,4.4-1.8,6.1-2.3c1.8-0.5,3.9-0.8,6.3-0.9c2-0.1,3.9-0.1,5.4,0c-2.5-2.6-6.4-5-10.7-4.9c-1,0-1.9,0.1-2.3,0.3
		c-0.6,0.2-1.2-0.1-1.4-0.6c0,0-0.8-1.5-1.4-2.6l-10-17.3c-0.4-0.6-0.2-1.5,0.3-1.9c0.6-0.5,1.3-0.8,2-0.8h1.6
		c0.3-0.4,0.8-1.1,0.8-2c0-1-0.3-1.8-0.6-2.3c-0.4,0.1-1.8,0.1-2.9,0.8c-1.3,0.8-1.9,1.7-2,1.9c-0.2,0.3-0.4,0.5-0.7,0.7l-2.3,1.3
		c0.5,0,1,0.2,1.2,0.6c0.1,0.2,2.8,5.6,4,7.7c4.2,7.7,3.4,13,2,16.1c-4,8.8-9.6,8.8-14.5,8.7l-1.3,0c-4.8,0-10.1,0-11.3-6.9
		c-0.9-5.4,2.7-9,4.2-10.3c0.3-0.2,0.4-0.6,0.4-1v-2.4c0-0.7,0.6-1.2,1.2-1.2l1.5,0c0.1-0.1,0.2-0.2,0.2-0.4V36h-13l0,0.7
		c0,0,0,0,0,0L61,39c0.3,0.3,0.4,0.7,0.3,1.2c-0.1,0.4-0.4,0.8-0.8,0.9l-3.3,1c-0.1,0-0.4,0.1-0.6,0.1c-0.9,0-9.5,0-13.6,0l-2,0
		c-0.7,0-2.9,1.2-4,2.2c-0.5,0.4-1,1-1.6,1.8c-0.4,0.5-1.2,0.6-1.7,0.2c-0.5-0.4-0.6-1.2-0.2-1.7c0.7-1,1.4-1.6,1.9-2.1
		c1.1-1,3.8-2.8,5.6-2.8l2,0c4.1,0,12.7,0,13.6,0l1.2-0.4l-0.8-0.8c-0.5-0.3-0.9-0.9-0.9-1.6v-1.1c0-1.3,1.1-2.4,2.4-2.4h13.2
		c1.2,0,2.2,1,2.2,2.2v2.6c0,1-0.5,1.9-1.3,2.5L72.5,41c-0.2,0.1-0.4,0.2-0.7,0.2h-0.7v1.2c0,1.1-0.5,2.2-1.3,2.9
		c-1.6,1.3-4.1,4-3.4,8c0.8,4.6,3.7,4.8,8.9,4.8l1.3,0c4.8,0,8.9,0,12.2-7.3c1.2-2.6,1.8-7-1.9-13.9c-0.9-1.6-2.6-5.1-3.5-6.7
		l-0.6,0.2c-0.9,0.4-2-0.1-2.4-1l-0.3-0.8c-0.4-0.9,0-1.9,0.8-2.3l4-2.3c0.1-0.3,0.9-1.4,2.5-2.5c1.5-1,3.4-1.1,4.4-1
		c0.8,0,1.5,0.4,1.9,1.1c0.5,0.8,1,2,0.9,3.6c-0.1,1.9-1,3.1-1.6,3.7c-0.4,0.4-0.9,0.7-1.5,0.7h-1.5l9.5,16.3
		c0.4,0.6,0.8,1.3,1.1,1.9c0.6-0.1,1.3-0.1,2-0.2c6.2,0,11.3,3.8,14,7.5c0.4,0.5,0.4,1.2,0.1,1.7c-0.3,0.5-0.9,0.9-1.5,0.8
		c-1.4-0.1-4.2-0.2-7.3-0.1c-2.3,0.1-4.2,0.4-5.8,0.8c-1.6,0.4-3.5,1.2-5.7,2.2c-2.8,1.3-5.1,2.6-6,3.1C89,64.4,84.6,66.1,80.9,66.1
		M58.7,37L58.7,37L58.7,37z M89.3,29.6C89.3,29.6,89.3,29.6,89.3,29.6C89.3,29.6,89.3,29.6,89.3,29.6 M82.7,28.3L82.7,28.3
		C82.8,28.3,82.7,28.3,82.7,28.3" fill="#E12214"></path> <path class="st0" d="M47.1,30.4h-5.7c-0.7,0-1.2-0.6-1.2-1.2v-5.7c0-0.7,0.6-1.2,1.2-1.2h5.7c0.7,0,1.2,0.6,1.2,1.2v5.7
		C48.3,29.9,47.7,30.4,47.1,30.4 M42.6,28h3.2v-3.2h-3.2V28z" fill="#E12214"></path> </g> <g fill="#666666"> </g> <g fill="#666666"> </g> <g fill="#666666"> </g> <g fill="#666666"> </g> <g fill="#666666"> </g> <g fill="#666666"> </g> <g fill="#666666"> </g> <g fill="#666666"> </g> <g fill="#666666"> </g> <g fill="#666666"> </g> <g fill="#666666"> </g> <g fill="#666666"> </g> <g fill="#666666"> </g> <g fill="#666666"> </g> <g fill="#666666"> </g> </svg>