<svg height="99" id="Capa_1" style="enable-background:new 0 0 138 99;" version="1.1" viewBox="0 0 138 99" x="0px" xml:space="preserve" xmlns="http://www.w3.org/2000/svg" xmlns:xlink="http://www.w3.org/1999/xlink" y="0px" width="138" >
<style type="text/css" fill="#666666">.st0{fill:#E12214;}
</style>
<g fill="#666666"> <path class="st0" d="M97.1,75.3c-1,0-1.8,0.8-1.8,1.8c0,1,0.8,1.8,1.8,1.8c1,0,1.8-0.8,1.8-1.8C98.9,76.1,98.1,75.3,97.1,75.3" fill="#E12214"></path> <path class="st0" d="M98.9,7.4H39.1c-0.4,0-0.9,0-1.5,0.2c-1,0.3-1.7,0.8-2,1.1c-5,9.2-7,12.7-8.1,14.8c-3.4,6.1-3.5,6.1-3.5,6.8v0
		v3.5c0,3,1.8,5.9,4.6,7.5v47.4c0,1,0.8,1.8,1.8,1.8h77.3c1,0,1.8-0.8,1.8-1.8V41.3c2.8-1.6,4.6-4.5,4.6-7.5v-3.5v0
		c0-1-0.2-0.6-11.6-21.5c-0.3-0.3-0.8-0.7-1.5-1C100.1,7.4,99.3,7.4,98.9,7.4 M109.3,28.5H98.4l-5.9-17.6h7.1L109.3,28.5z M84.8,32
		h10.5v1.8c0,2.9-2.4,5.3-5.3,5.3c-2.9,0-5.3-2.4-5.3-5.3V32z M84.6,28.5l-2.9-17.6h7.2l5.9,17.6H84.6z M81.3,32v1.8
		c0,2.9-2.4,5.3-5.3,5.3c-2.9,0-5.3-2.4-5.3-5.3V32H81.3z M70.8,28.5V10.9h7.3L81,28.5H70.8z M57,28.5l2.9-17.6h7.3v17.6H57z
		 M67.2,32v1.8c0,2.9-2.4,5.3-5.3,5.3c-2.9,0-5.3-2.4-5.3-5.3V32H67.2z M43.3,28.5l5.9-17.6h7.2l-2.9,17.6H43.3z M53.2,32v1.8
		c0,2.9-2.4,5.3-5.3,5.3c-2.9,0-5.3-2.4-5.3-5.3V32H53.2z M38.4,10.9h7.1l-5.9,17.6H28.7L38.4,10.9z M27.5,33.8V32h11.6v1.8
		c0,2.8-2.8,5.3-5.8,5.3c-0.8,0-1.6-0.2-2.3-0.5C28.9,37.7,27.5,35.8,27.5,33.8 M60.2,86.9H42.6V71.8h17.6V86.9z M60.2,68.3H42.6
		V53.1h17.6V68.3z M105.9,86.9H63.7V51.4c0-1-0.8-1.8-1.8-1.8H40.9c-1,0-1.8,0.8-1.8,1.8v35.5h-7V42.5c0.4,0.1,0.8,0.1,1.2,0.1
		c2.3,0,4.7-0.9,6.4-2.5c0.4-0.4,0.7-0.7,1.1-1.1c1.6,2.2,4.2,3.6,7.1,3.6c2.9,0,5.4-1.4,7-3.5c1.6,2.1,4.2,3.5,7,3.5
		c2.9,0,5.4-1.4,7-3.5c1.6,2.1,4.2,3.5,7,3.5s5.4-1.4,7-3.5c1.6,2.1,4.2,3.5,7,3.5c2.9,0,5.5-1.4,7.1-3.6c0.3,0.4,0.7,0.8,1.1,1.1
		c1.8,1.6,4.1,2.5,6.4,2.5c0.4,0,0.8,0,1.2-0.1V86.9z M110.5,33.8c0,2-1.5,4-3.6,4.8c-0.7,0.3-1.4,0.4-2.2,0.4c-3,0-5.8-2.5-5.8-5.3
		V32h11.6V33.8z" fill="#E12214"></path> <path class="st0" d="M100.6,68.3h-1.8V51.4c0-1-0.8-1.8-1.8-1.8H76c-1,0-1.8,0.8-1.8,1.8v16.9h-1.8c-1,0-1.8,0.8-1.8,1.8
		c0,1,0.8,1.8,1.8,1.8h28.1c1,0,1.8-0.8,1.8-1.8C102.4,69,101.6,68.3,100.6,68.3 M95.4,68.3H77.8V53.1h17.6V68.3z" fill="#E12214"></path> <path class="st0" d="M90.1,75.3H76c-1,0-1.8,0.8-1.8,1.8c0,1,0.8,1.8,1.8,1.8h14.1c1,0,1.8-0.8,1.8-1.8
		C91.9,76.1,91.1,75.3,90.1,75.3" fill="#E12214"></path> </g> <g fill="#666666"> </g> <g fill="#666666"> </g> <g fill="#666666"> </g> <g fill="#666666"> </g> <g fill="#666666"> </g> <g fill="#666666"> </g> <g fill="#666666"> </g> <g fill="#666666"> </g> <g fill="#666666"> </g> <g fill="#666666"> </g> <g fill="#666666"> </g> <g fill="#666666"> </g> <g fill="#666666"> </g> <g fill="#666666"> </g> <g fill="#666666"> </g> </svg>