<svg height="99" id="Capa_1" style="enable-background:new 0 0 138 99;" version="1.1" viewBox="0 0 138 99" x="0px" xml:space="preserve" xmlns="http://www.w3.org/2000/svg" xmlns:xlink="http://www.w3.org/1999/xlink" y="0px" width="138" >
<style type="text/css" fill="#666666">.st0{fill:#E12214;}
</style>
<g fill="#666666"> <path class="st0" d="M105.8,76.7c-5.3,0-9.6-4.3-9.6-9.6s4.3-9.6,9.6-9.6c5.3,0,9.6,4.3,9.6,9.6S111.1,76.7,105.8,76.7 M105.8,60.4
		c-3.7,0-6.7,3-6.7,6.7s3,6.7,6.7,6.7c3.7,0,6.7-3,6.7-6.7S109.5,60.4,105.8,60.4" fill="#E12214"></path> <path class="st0" d="M53.2,76.7c-5.3,0-9.6-4.3-9.6-9.6s4.3-9.6,9.6-9.6c5.3,0,9.6,4.3,9.6,9.6S58.5,76.7,53.2,76.7 M53.2,60.4
		c-3.7,0-6.7,3-6.7,6.7s3,6.7,6.7,6.7c3.7,0,6.7-3,6.7-6.7S56.9,60.4,53.2,60.4" fill="#E12214"></path> <path class="st0" d="M119,68.6h-5c-0.8,0-1.4-0.6-1.4-1.4c0-0.8,0.6-1.4,1.4-1.4h5l-0.1-10.1c0-1.4-0.4-2.7-1-3.9L108,34.1
		c-0.2-0.4-0.7-0.7-1.2-0.7H92.9v32.4h4.7c0.8,0,1.4,0.6,1.4,1.4c0,0.8-0.6,1.4-1.4,1.4h-6.2c-0.8,0-1.4-0.6-1.4-1.4V31.9
		c0-0.8,0.6-1.4,1.4-1.4h15.3c1.5,0,2.9,0.8,3.7,2.2l9.9,17.7c0.9,1.6,1.4,3.5,1.4,5.3v10.2C121.7,67.4,120.5,68.6,119,68.6" fill="#E12214"></path> <path class="st0" d="M111.7,52.5l-13.3,0h0c-1.2,0-2.2-1-2.2-2.2V37c0-0.8,0.6-1.4,1.4-1.4h6.3c1.3,0,2.6,0.7,3.2,1.9l6.4,11.8
		c0.4,0.7,0.4,1.5,0,2.2C113.2,52.1,112.5,52.5,111.7,52.5 M111.1,50.6C111.1,50.6,111.1,50.6,111.1,50.6L111.1,50.6z M99.1,49.6
		l11.5,0l-5.9-10.8c-0.1-0.3-0.4-0.4-0.7-0.4h-4.9V49.6z M98.4,49.6L98.4,49.6L98.4,49.6z" fill="#E12214"></path> <path class="st0" d="M45,68.6H27.6c-0.8,0-1.4-0.6-1.4-1.4V53.8c0-0.8,0.6-1.4,1.4-1.4S29,53,29,53.8v11.9h16
		c0.8,0,1.4,0.6,1.4,1.4C46.5,67.9,45.8,68.6,45,68.6" fill="#E12214"></path> <path class="st0" d="M27.6,51c-0.8,0-1.4-0.6-1.4-1.4V30.7c0-0.8,0.6-1.4,1.4-1.4c0.8,0,1.4,0.6,1.4,1.4v18.8
		C29,50.3,28.4,51,27.6,51" fill="#E12214"></path> <path class="st0" d="M91.5,68.6H61.3c-0.8,0-1.4-0.6-1.4-1.4c0-0.8,0.6-1.4,1.4-1.4h28.7V17.3l-61-0.1L29,25.2
		c0,0.8-0.6,1.4-1.4,1.4c-0.8,0-1.4-0.6-1.4-1.4v-7.8c0-1.6,1.3-2.9,2.9-2.9h61c1.6,0,2.9,1.3,2.9,2.9v49.8
		C92.9,67.9,92.3,68.6,91.5,68.6" fill="#E12214"></path> <path class="st0" d="M34.8,55.2h-21c-0.8,0-1.4-0.6-1.4-1.4c0-0.8,0.6-1.4,1.4-1.4h21c0.8,0,1.4,0.6,1.4,1.4
		C36.2,54.6,35.6,55.2,34.8,55.2" fill="#E12214"></path> <path class="st0" d="M53.2,45.7h-3c-0.8,0-1.4-0.6-1.4-1.4c0-0.8,0.6-1.4,1.4-1.4h3c0.8,0,1.4,0.6,1.4,1.4
		C54.6,45.1,54,45.7,53.2,45.7" fill="#E12214"></path> <path class="st0" d="M45,45.7H20.9c-0.8,0-1.4-0.6-1.4-1.4c0-0.8,0.6-1.4,1.4-1.4H45c0.8,0,1.4,0.6,1.4,1.4
		C46.5,45.1,45.8,45.7,45,45.7" fill="#E12214"></path> <path class="st0" d="M20.9,36.2H9.7c-0.8,0-1.4-0.6-1.4-1.4c0-0.8,0.6-1.4,1.4-1.4h11.2c0.8,0,1.4,0.6,1.4,1.4
		C22.4,35.5,21.7,36.2,20.9,36.2" fill="#E12214"></path> <path class="st0" d="M40.1,26.6H20.9c-0.8,0-1.4-0.6-1.4-1.4c0-0.8,0.6-1.4,1.4-1.4h19.2c0.8,0,1.4,0.6,1.4,1.4
		C41.6,26,40.9,26.6,40.1,26.6" fill="#E12214"></path> </g> <g fill="#666666"> </g> <g fill="#666666"> </g> <g fill="#666666"> </g> <g fill="#666666"> </g> <g fill="#666666"> </g> <g fill="#666666"> </g> <g fill="#666666"> </g> <g fill="#666666"> </g> <g fill="#666666"> </g> <g fill="#666666"> </g> <g fill="#666666"> </g> <g fill="#666666"> </g> <g fill="#666666"> </g> <g fill="#666666"> </g> <g fill="#666666"> </g> </svg>